<svg width="25" height="25" viewBox="0 0 25 25" fill="none" xmlns="http://www.w3.org/2000/svg">
<path d="M12.5 0C5.60723 0 0 5.60723 0 12.5C0 19.3928 5.60723 25 12.5 25C19.3928 25 25 19.3928 25 12.5C25 5.60723 19.3928 0 12.5 0Z" fill="#F44336"/>
<path d="M17.1031 15.6301C17.5104 16.0376 17.5104 16.6958 17.1031 17.1032C17.0065 17.2001 16.8917 17.2769 16.7653 17.3293C16.6388 17.3816 16.5033 17.4085 16.3665 17.4084C16.0999 17.4084 15.8333 17.3063 15.6301 17.1032L12.5 13.9729L9.36982 17.1032C9.27321 17.2001 9.15842 17.2769 9.03203 17.3293C8.90564 17.3817 8.77016 17.4085 8.63335 17.4084C8.49653 17.4086 8.36102 17.3817 8.23462 17.3293C8.10822 17.2769 7.99341 17.2001 7.89678 17.1032C7.48955 16.6958 7.48955 16.0376 7.89678 15.6301L11.0271 12.5L7.89673 9.36989C7.4895 8.96246 7.4895 8.30421 7.89673 7.89684C8.30415 7.48961 8.9624 7.48961 9.36982 7.89684L12.5 11.0272L15.6301 7.89679C16.0375 7.48956 16.6958 7.48956 17.1031 7.89679C17.5104 8.30421 17.5104 8.96246 17.1031 9.36989L13.9728 12.5L17.1031 15.6301Z" fill="#FAFAFA"/>
</svg>
