<svg width="32" height="21" viewBox="0 0 32 21" fill="none" xmlns="http://www.w3.org/2000/svg">
<path d="M15.5347 5.5C12.776 5.5 10.5347 7.74138 10.5347 10.5C10.5347 13.2586 12.776 15.5 15.5347 15.5C18.2933 15.5 20.5347 13.2586 20.5347 10.5C20.5347 7.74138 18.2933 5.5 15.5347 5.5ZM15.1554 9.01724C14.5347 9.01724 14.0174 9.53448 14.0174 10.1552H12.3623C12.3967 8.60345 13.6381 7.36207 15.1554 7.36207V9.01724Z" fill="#2C4C57"/>
<path d="M30.7069 9.46552C29.0172 7.36207 22.9828 0.5 15.5345 0.5C8.08621 0.5 2.05172 7.36207 0.362069 9.46552C-0.12069 10.0517 -0.12069 10.9138 0.362069 11.5345C2.05172 13.6379 8.08621 20.5 15.5345 20.5C22.9828 20.5 29.0172 13.6379 30.7069 11.5345C31.1897 10.9483 31.1897 10.0862 30.7069 9.46552ZM15.5345 17.7414C11.5345 17.7414 8.2931 14.5 8.2931 10.5C8.2931 6.5 11.5345 3.25862 15.5345 3.25862C19.5345 3.25862 22.7759 6.5 22.7759 10.5C22.7759 14.5 19.5345 17.7414 15.5345 17.7414Z" fill="#2C4C57"/>
</svg>
