<svg width="25" height="25" viewBox="0 0 25 25" fill="none" xmlns="http://www.w3.org/2000/svg">
<path d="M12.5 25C19.4036 25 25 19.4036 25 12.5C25 5.59644 19.4036 0 12.5 0C5.59644 0 0 5.59644 0 12.5C0 19.4036 5.59644 25 12.5 25Z" fill="#26A1F4"/>
<path d="M16.853 11.5986L16.8461 11.5918L13.4008 8.14403C13.4008 8.14403 9.2016 12.3432 7.17816 14.4087C6.92621 14.6655 6.73529 15.0229 6.62201 15.3686C6.28998 16.3838 6.01508 17.4194 5.70941 18.4448C5.62738 18.7197 5.64399 18.9619 5.85932 19.167C6.06244 19.3623 6.29096 19.3691 6.55463 19.29C7.53119 18.9971 8.5141 18.7182 9.49506 18.4375C9.99949 18.2913 10.4568 18.0153 10.8212 17.6372C12.749 15.6977 16.853 11.5986 16.853 11.5986ZM18.8642 7.31493L17.686 6.1367C17.3838 5.83481 16.9742 5.66522 16.5471 5.66522C16.1199 5.66522 15.7103 5.83481 15.4081 6.1367L14.0727 7.47069L17.5292 10.9282L18.8647 9.59276C19.1665 9.29055 19.336 8.88087 19.3359 8.45374C19.3358 8.02662 19.1662 7.61701 18.8642 7.31493Z" fill="white"/>
</svg>
